#N canvas 642 84 458 350 10;
#X obj 166 129 fft~;
#X obj 166 201 dac~;
#X obj 238 62 osc~;
#X obj 374 -79 vsl 15 128 200 800 0 0 empty empty empty 0 -9 0 10 -262144
-1 -1 7400 1;
#X obj 45 -61 vsl 15 128 200 800 0 0 empty empty empty 0 -9 0 10 -262144
-1 -1 3200 1;
#X obj 74 95 osc~;
#X connect 0 0 1 0;
#X connect 0 1 1 0;
#X connect 2 0 0 1;
#X connect 3 0 2 0;
#X connect 4 0 5 0;
#X connect 5 0 0 0;
