#N canvas 247 314 450 300 24;
#X obj 187 185 sms~;
#X obj 100 253 dac~;
#X obj 72 46 osc~ 400;
#X obj 173 46 osc~ 200;
#X msg 237 91 2;
#X obj 335 158;
#X msg 334 115 0;
#X msg 334 80 1;
#X connect 0 0 1 0;
#X connect 2 0 0 0;
#X connect 3 0 0 1;
#X connect 4 0 0 2;
#X connect 6 0 0 4;
#X connect 7 0 0 3;
