#N canvas 559 103 590 538 10;
#X obj 175 174 duck~;
#X obj 115 133 osc~;
#X obj 228 149 osc~;
#X obj 189 258 dac~;
#X obj 60 12 vsl 15 128 200 700 0 0 empty empty empty 0 -9 0 10 -262144
-1 -1 8500 1;
#X obj 354 2 vsl 15 128 200 700 0 0 empty empty empty 0 -9 0 10 -262144
-1 -1 4200 1;
#X connect 0 0 3 0;
#X connect 1 0 0 0;
#X connect 2 0 0 1;
#X connect 4 0 1 0;
#X connect 5 0 2 0;
